<svg xmlns="http://www.w3.org/2000/svg" xmlns:xlink="http://www.w3.org/1999/xlink" width="40" height="39" viewBox="0 0 40 39">
    <path id="usuya0" fill="#FFF" fill-rule="nonzero" d="M39.25 34.934a7.94 7.94 0 0 1-3.768-5.103A19.592 19.592 0 0 0 38.395 19.5C38.395 8.747 29.784 0 19.197 0 8.611 0 0 8.747 0 19.5S8.611 39 19.197 39a18.9 18.9 0 0 0 9.049-2.298A9.152 9.152 0 0 0 34.312 39c1.785 0 3.518-.52 5.013-1.5.434-.284.69-.78.674-1.302a1.502 1.502 0 0 0-.749-1.264zm-9.308-1.092a1.49 1.49 0 0 0-1.908-.287A16.3 16.3 0 0 1 19.426 36C10.368 36 3 28.599 3 19.5S10.368 3 19.426 3c9.058 0 16.426 7.401 16.426 16.5 0 3.3-.962 6.478-2.781 9.188a1.508 1.508 0 0 0-.235 1.083A10.977 10.977 0 0 0 36 35.867c-2.194.452-4.576-.327-6.058-2.025z"/>
    <g><use xlink:href="#usuya0"/></g>
</svg>
